# xmcd
#
# Track frame offsets: 
#        150
#        20420
#        39105
#        61217
#        85880
#        110557
#
# Disc length: 1761 seconds
#
# Revision: 0
# Processed by: cddbd v1.5.2PL0 Copyright (c) Steve Scherf et al.
# Submitted via: ExactAudioCopy v1.3
#
DISCID=3f06df06
DTITLE=Hi-Five and Nuttin' Nyce - What Can I Say To You (To Justify My L
DTITLE=ove) [CDS)
DYEAR=1993
DGENRE=R&B
TTITLE0=What Can I Say To You (To Justify My Love) (LP Version)
TTITLE1=What Can I Say To You (To Justify My Love) (No Rap Version)
TTITLE2=What Can I Say To You (To Justify My Love) (Fingers' Remix)
TTITLE3=What Can I Say To You (To Justify My Love) (Fingers' Extended 
TTITLE3=Remix)
TTITLE4=What Can I Say To You (To Justify My Love) (Fingers' Beatappel
TTITLE4=la Mix)
TTITLE5=What Can I Say To You (To Justify My Love) (Remix Instrumental
TTITLE5=)
EXTD=
EXTT0=
EXTT1=
EXTT2=
EXTT3=
EXTT4=
EXTT5=
PLAYORDER=
